<svg width="137" height="55" viewBox="0 0 137 55" fill="none" xmlns="http://www.w3.org/2000/svg">
<g filter="url(#filter0_f)">
<path fill-rule="evenodd" clip-rule="evenodd" d="M33.7575 37.007C39.018 37.007 43.2824 32.7426 43.2824 27.4822C43.2824 22.2217 39.018 17.9573 33.7575 17.9573C28.4971 17.9573 24.2327 22.2217 24.2327 27.4822C24.2327 32.7426 28.4971 37.007 33.7575 37.007ZM33.7575 39.9643C40.6512 39.9643 46.2397 34.3759 46.2397 27.4822C46.2397 20.5885 40.6512 15 33.7575 15C26.8638 15 21.2754 20.5885 21.2754 27.4822C21.2754 34.3759 26.8638 39.9643 33.7575 39.9643Z" fill="url(#paint0_linear)"/>
</g>
<g filter="url(#filter1_f)">
<path fill-rule="evenodd" clip-rule="evenodd" d="M33.7575 38.4857C39.8346 38.4857 44.761 33.5592 44.761 27.4822C44.761 21.4051 39.8346 16.4787 33.7575 16.4787C27.6805 16.4787 22.754 21.4051 22.754 27.4822C22.754 33.5592 27.6805 38.4857 33.7575 38.4857ZM33.7575 39.9643C40.6512 39.9643 46.2397 34.3759 46.2397 27.4822C46.2397 20.5885 40.6512 15 33.7575 15C26.8638 15 21.2754 20.5885 21.2754 27.4822C21.2754 34.3759 26.8638 39.9643 33.7575 39.9643Z" fill="url(#paint1_linear)"/>
</g>
<path fill-rule="evenodd" clip-rule="evenodd" d="M34.2488 39.2531C40.4892 39.2531 45.548 34.1942 45.548 27.9538C45.548 21.7134 40.4892 16.6546 34.2488 16.6546C28.0084 16.6546 22.9495 21.7134 22.9495 27.9538C22.9495 34.1942 28.0084 39.2531 34.2488 39.2531ZM34.2488 40.436C41.1425 40.436 46.7309 34.8476 46.7309 27.9538C46.7309 21.0601 41.1425 15.4717 34.2488 15.4717C27.3551 15.4717 21.7666 21.0601 21.7666 27.9538C21.7666 34.8476 27.3551 40.436 34.2488 40.436Z" fill="url(#paint2_linear)"/>
<g filter="url(#filter2_f)">
<ellipse cx="26.0397" cy="36.4308" rx="3.37664" ry="3.37665" fill="black"/>
</g>
<ellipse cx="26.0423" cy="36.4329" rx="3.11258" ry="3.11258" fill="white"/>
<g filter="url(#filter3_f)">
<ellipse cx="42.7467" cy="19.7872" rx="3.2418" ry="3.2418" fill="#00EFFF"/>
</g>
<ellipse cx="42.7444" cy="19.782" rx="3.11258" ry="3.14821" fill="#102F31"/>
<path d="M2.0627 23.1035H10.4819C11.9647 23.1035 13.2059 23.4248 14.2054 24.0674C14.3757 24.1662 14.5624 24.3063 14.7656 24.4875C15.5839 25.2619 15.9931 26.2312 15.9931 27.3955C15.9931 28.3731 15.6965 29.2106 15.1034 29.9081C14.9496 30.0783 14.8205 30.2019 14.7162 30.2788C14.4691 30.4875 14.2549 30.6385 14.0736 30.7319C13.0796 31.3085 11.8823 31.5969 10.4819 31.5969L4.13866 31.6298H3.96566V33.4998C3.96566 33.8513 3.80914 34.1479 3.4961 34.3895C3.30388 34.5158 3.08969 34.579 2.85354 34.579H1V24.1662C1 23.8642 1.13455 23.5896 1.40366 23.3424C1.60686 23.1831 1.82654 23.1035 2.0627 23.1035ZM3.96566 26.0774V28.6724H10.6961C11.3386 28.6724 11.8 28.5378 12.08 28.2687C12.1295 28.2193 12.1817 28.1644 12.2366 28.104C12.3903 27.8898 12.4672 27.6481 12.4672 27.379C12.4672 26.8188 12.1926 26.4289 11.6434 26.2092C11.3963 26.1214 11.086 26.0774 10.7125 26.0774H3.96566Z" fill="white"/>
<path d="M55.0753 23.1035H56.9782C56.9782 23.1365 56.9755 23.1639 56.97 23.1859C56.9645 23.1969 56.9617 23.2051 56.9617 23.2106V31.1355L56.9782 31.152H56.9617C56.9727 31.163 56.9782 31.174 56.9782 31.185C56.9782 31.1904 56.9782 31.2014 56.9782 31.2179V31.6133H67.5228V33.4339C67.5228 33.9392 67.2921 34.2989 66.8308 34.5131C66.7045 34.557 66.5809 34.579 66.4601 34.579H55.0917C54.7183 34.579 54.4135 34.417 54.1773 34.093C54.0785 33.9392 54.0235 33.7854 54.0126 33.6316V33.5492L53.9961 24.1662C53.9961 23.8971 54.1032 23.65 54.3174 23.4248C54.537 23.2106 54.7897 23.1035 55.0753 23.1035Z" fill="white"/>
<path d="M81.7583 23.1035H84.172C84.6608 23.1035 85.07 23.3067 85.3995 23.7131C85.4874 23.8339 85.5972 24.0207 85.729 24.2733C85.751 24.3063 85.7702 24.3392 85.7867 24.3722C85.8361 24.449 86.259 25.1905 87.0553 26.5964C87.2805 26.9973 87.5386 27.4532 87.8297 27.9639C89.6366 31.1547 90.5647 32.7859 90.6141 32.8573L91.578 34.579H89.0407C88.3707 34.579 87.8764 34.2632 87.5578 33.6316C87.3327 33.2472 87.1679 32.9616 87.0636 32.7749C86.9757 32.6156 86.9263 32.5305 86.9153 32.5195H79.0398C79.0288 32.5195 79.0151 32.525 78.9986 32.536C78.9876 32.547 78.9794 32.5689 78.9739 32.6019L78.2325 33.9035C77.8975 34.3538 77.4526 34.579 76.8979 34.579H74.3854C74.3744 34.579 74.3689 34.579 74.3689 34.579C74.3689 34.5735 74.3689 34.568 74.3689 34.5625C75.5826 32.4152 76.6398 30.5534 77.5405 28.9772C78.2544 27.7195 78.8311 26.7035 79.2705 25.9291C79.9515 24.7264 80.3084 24.1003 80.3414 24.0509C80.4293 23.8861 80.5226 23.7406 80.6215 23.6143C80.94 23.2738 81.319 23.1035 81.7583 23.1035ZM82.9693 25.5502L80.3908 30.0893H85.5478C83.8617 27.1346 83.0023 25.6216 82.9693 25.5502Z" fill="white"/>
<path d="M99.7174 23.1035H108.071C109.197 23.1035 110.169 23.2793 110.987 23.6307C111.152 23.6966 111.281 23.7516 111.374 23.7955C111.511 23.8724 111.657 23.963 111.811 24.0674C112.541 24.5122 113.06 25.141 113.368 25.9538C113.532 26.3877 113.615 26.849 113.615 27.3378V27.4449C113.615 28.0326 113.491 28.5873 113.244 29.109C113.167 29.2573 113.071 29.422 112.956 29.6033C112.857 29.7351 112.739 29.8751 112.602 30.0234C112.536 30.1003 112.47 30.1689 112.404 30.2294L112.321 30.3117L112.256 30.3612L112.132 30.46C112.033 30.5314 111.91 30.6138 111.761 30.7072C111.739 30.7181 111.717 30.7319 111.695 30.7483C111.547 30.8252 111.413 30.8939 111.292 30.9543C111.231 30.9818 111.174 31.0092 111.119 31.0367C110.905 31.1245 110.679 31.2042 110.443 31.2756C111.124 31.9785 111.591 32.4893 111.844 32.8078C112.014 33.0001 112.181 33.1895 112.346 33.3763C112.659 33.7387 112.959 34.0765 113.244 34.3895C113.332 34.4719 113.384 34.5296 113.401 34.5625H109.842C109.639 34.5625 109.479 34.5406 109.364 34.4966C109.331 34.4801 109.301 34.4637 109.273 34.4472C109.246 34.4307 109.216 34.4115 109.183 34.3895C109.067 34.3126 108.938 34.1836 108.796 34.0023C108.274 33.3817 107.722 32.7035 107.14 31.9676L106.851 31.5969C106.835 31.5969 106.802 31.6023 106.753 31.6133C106.412 31.6133 105.388 31.6188 103.68 31.6298H101.587V33.4998C101.587 33.8513 101.436 34.1479 101.134 34.3895C100.953 34.5158 100.744 34.579 100.508 34.579H98.6217V24.2568C98.6217 24.0701 98.6437 23.9218 98.6877 23.812C98.7096 23.7461 98.7481 23.6692 98.803 23.5813C98.8414 23.5264 98.8881 23.4742 98.943 23.4248C99.1737 23.2106 99.4318 23.1035 99.7174 23.1035ZM101.587 26.0774V28.6724H108.334C108.862 28.6724 109.262 28.5818 109.537 28.4005C109.735 28.2742 109.88 28.1067 109.974 27.898C110.051 27.7387 110.089 27.5575 110.089 27.3543C110.089 26.9534 109.905 26.6184 109.537 26.3493C109.482 26.3108 109.424 26.2779 109.364 26.2504C109.348 26.2449 109.331 26.2367 109.315 26.2257C109.216 26.1763 109.065 26.1323 108.862 26.0939C108.796 26.0939 108.705 26.0884 108.59 26.0774H101.587Z" fill="white"/>
<path d="M124.242 23.1035H134.704C134.99 23.1035 135.259 23.1996 135.512 23.3918C135.836 23.6719 135.998 24.0317 135.998 24.471V26.0774H135.981C135.212 26.0884 133.587 26.0939 131.104 26.0939C129.149 26.1049 127.633 26.1104 126.557 26.1104C125.431 26.1214 124.665 26.1268 124.259 26.1268C124.176 26.1268 124.102 26.1543 124.036 26.2092C123.981 26.2641 123.954 26.3438 123.954 26.4481V27.0742C123.954 27.2225 124.017 27.3241 124.143 27.379C124.16 27.3845 124.173 27.39 124.184 27.3955C124.195 27.3955 124.209 27.3955 124.226 27.3955C126.719 27.3845 128.141 27.379 128.493 27.379C128.581 27.379 128.74 27.3763 128.971 27.3708C129.619 27.3598 130.849 27.3543 132.661 27.3543H132.727C132.963 27.3543 133.279 27.3845 133.675 27.4449C133.96 27.4943 134.196 27.5548 134.383 27.6262C134.976 27.8568 135.402 28.222 135.66 28.7218C135.885 29.1612 135.998 29.7021 135.998 30.3447V31.5227C135.998 32.687 135.654 33.5081 134.968 33.9859C134.413 34.3813 133.587 34.579 132.488 34.579H122.298C121.914 34.579 121.579 34.417 121.293 34.093C121.09 33.8513 120.988 33.5685 120.988 33.2444V31.6133H132.595C132.727 31.6133 132.815 31.5502 132.859 31.4239C132.87 31.4074 132.875 31.3909 132.875 31.3744C132.881 31.358 132.884 31.347 132.884 31.3415V30.4765C132.884 30.3612 132.821 30.2788 132.694 30.2294C132.661 30.2184 132.628 30.2129 132.595 30.2129H124.259C122.941 30.2129 122.034 29.8861 121.54 29.2326C121.441 29.1117 121.37 28.9991 121.326 28.8948C121.271 28.7905 121.219 28.6614 121.169 28.5076C121.125 28.3648 121.087 28.1891 121.054 27.9804C121.021 27.7552 121.005 27.423 121.005 26.9836V26.9177C121.005 25.8577 121.095 25.1273 121.276 24.7264C121.37 24.4573 121.526 24.2047 121.746 23.9685C121.867 23.8312 121.974 23.7351 122.067 23.6802C122.386 23.4605 122.746 23.3095 123.146 23.2271C123.487 23.1447 123.852 23.1035 124.242 23.1035Z" fill="white"/>
<g filter="url(#filter4_f)">
<path fill-rule="evenodd" clip-rule="evenodd" d="M14.0848 24.2685L14.0803 24.2656C13.1274 23.653 11.9335 23.3393 10.4848 23.3393H2.06563C1.89004 23.3393 1.72323 23.3963 1.55988 23.5222C1.3335 23.7326 1.23972 23.9454 1.23972 24.1652V34.3412H2.85647C3.04462 34.3412 3.211 34.2925 3.36156 34.1955C3.61968 33.9936 3.7318 33.7646 3.7318 33.4988V31.392H4.14159L10.4842 31.3591H10.4848C11.8526 31.3591 13.0069 31.0777 13.9577 30.5261L13.9629 30.5231L13.9681 30.5204C14.1271 30.4385 14.3259 30.2999 14.5664 30.0969L14.5723 30.0918L14.5787 30.0872C14.6636 30.0246 14.7794 29.9155 14.9282 29.751C15.4808 29.0999 15.7592 28.3187 15.7592 27.3945C15.7592 26.294 15.3759 25.3885 14.6083 24.6609C14.4139 24.4878 14.2411 24.3592 14.0895 24.2712L14.0848 24.2685ZM14.7686 24.4865C15.5869 25.2609 15.996 26.2302 15.996 27.3945C15.996 28.3721 15.6994 29.2096 15.1063 29.9071C14.9525 30.0773 14.8235 30.2009 14.7191 30.2778C14.472 30.4865 14.2578 30.6375 14.0766 30.7309C13.0825 31.3075 11.8853 31.5959 10.4848 31.5959L4.14159 31.6288H3.96859V33.4988C3.96859 33.8503 3.81207 34.1469 3.49903 34.3885C3.30681 34.5149 3.09262 34.578 2.85647 34.578H1.00293V24.1652C1.00293 23.8632 1.13748 23.5886 1.40659 23.3414C1.60979 23.1822 1.82947 23.1025 2.06563 23.1025H10.4848C11.9676 23.1025 13.2088 23.4238 14.2084 24.0664C14.3786 24.1652 14.5653 24.3053 14.7686 24.4865ZM3.7318 25.8397H10.7155C11.1055 25.8397 11.4448 25.8853 11.7257 25.9851L11.73 25.9867L11.7343 25.9884C12.0412 26.1112 12.2884 26.2886 12.4578 26.5291C12.6279 26.7706 12.707 27.0579 12.707 27.378C12.707 27.6956 12.6152 27.9858 12.4319 28.2411L12.4239 28.2522L12.4147 28.2623C12.3577 28.325 12.3029 28.3827 12.2504 28.4352L12.2487 28.4369L12.247 28.4385C11.9016 28.7704 11.365 28.9082 10.699 28.9082H3.7318V25.8397ZM56.9647 31.1346V23.2096C56.9647 23.2041 56.9674 23.1959 56.9729 23.1849C56.9784 23.163 56.9812 23.1355 56.9812 23.1025H55.0782C54.7926 23.1025 54.54 23.2096 54.3203 23.4238C54.1061 23.649 53.999 23.8961 53.999 24.1652L54.0155 33.5483V33.6307C54.0265 33.7844 54.0814 33.9382 54.1802 34.092C54.4164 34.416 54.7212 34.578 55.0947 34.578H66.463C66.5839 34.578 66.7074 34.556 66.8337 34.5121C67.2951 34.2979 67.5257 33.9382 67.5257 33.4329V31.6124H56.9812V31.184C56.9812 31.1759 56.9782 31.1679 56.9723 31.1599C56.9702 31.1569 56.9676 31.154 56.9647 31.151H56.9812L56.9647 31.1346ZM56.7279 30.9142V23.3393H55.0782C54.8605 23.3393 54.667 23.4178 54.4888 23.5903C54.3118 23.7776 54.2359 23.9672 54.2358 24.1649C54.2358 24.165 54.2358 24.1651 54.2358 24.1652L54.2523 33.5479V33.6215C54.2611 33.7251 54.2988 33.8368 54.3757 33.9581C54.5703 34.2223 54.8052 34.3412 55.0947 34.3412H66.463C66.5514 34.3412 66.6451 34.3258 66.7449 34.2923C66.9367 34.2013 67.0682 34.0867 67.1534 33.9539C67.2401 33.8186 67.2889 33.6487 67.2889 33.4329V31.8491H56.7444V31.2656L56.393 30.9142H56.7279ZM85.7319 24.2723C85.6001 24.0197 85.4903 23.833 85.4024 23.7121C85.0729 23.3057 84.6638 23.1025 84.175 23.1025H81.7613C81.3219 23.1025 80.9429 23.2728 80.6244 23.6133C80.5256 23.7396 80.4322 23.8851 80.3443 24.0499C80.3114 24.0993 79.9544 24.7254 79.2734 25.9282C78.834 26.7025 78.2574 27.7185 77.5434 28.9762C76.6737 30.4982 75.658 32.2866 74.4964 34.3412C74.4605 34.4047 74.4244 34.4684 74.3883 34.5324C74.3828 34.5421 74.3773 34.5518 74.3718 34.5615V34.578H76.9009C77.4555 34.578 77.9004 34.3528 78.2354 33.9025L78.9768 32.6009C78.9823 32.568 78.9906 32.546 79.0015 32.535C79.018 32.524 79.0317 32.5185 79.0427 32.5185H86.9182C86.9292 32.5295 86.9786 32.6146 87.0665 32.7739C87.1708 32.9606 87.3356 33.2462 87.5608 33.6307C87.8793 34.2622 88.3736 34.578 89.0436 34.578H91.5809L90.6171 32.8563C90.5676 32.7849 89.6395 31.1538 87.8326 27.9629C87.5416 27.4522 87.2834 26.9963 87.0583 26.5954C86.2619 25.1895 85.839 24.4481 85.7896 24.3712C85.7731 24.3382 85.7539 24.3053 85.7319 24.2723ZM86.8521 26.712C86.0524 25.3001 85.6351 24.5687 85.5904 24.4992L85.5835 24.4885L85.5778 24.4771C85.566 24.4535 85.5518 24.4291 85.5349 24.4037L85.5279 24.3931L85.522 24.3819C85.3937 24.1359 85.2915 23.9632 85.2145 23.8564C84.9272 23.5043 84.5849 23.3393 84.175 23.3393H81.7613C81.395 23.3393 81.0796 23.4768 80.8044 23.7675C80.7176 23.8796 80.6337 24.0105 80.5533 24.1613L80.5478 24.1716L80.5413 24.1813C80.5417 24.1807 80.5362 24.1895 80.5208 24.2156C80.5071 24.2389 80.4882 24.2715 80.4639 24.3135C80.4155 24.3974 80.3468 24.5174 80.2576 24.6738C80.0793 24.9866 79.8199 25.4435 79.4794 26.0448L79.4794 26.0449L79.4793 26.045C79.04 26.8194 78.4633 27.8354 77.7493 29.0931L77.7492 29.0934L77.749 29.0937C76.896 30.5865 75.9024 32.3357 74.7684 34.3412H76.9009C77.375 34.3412 77.7472 34.1559 78.037 33.7724L78.753 32.5154C78.7644 32.4723 78.7869 32.4148 78.8341 32.3676L78.8507 32.351L78.8702 32.338C78.8985 32.3191 78.9606 32.2817 79.0427 32.2817H87.0163L87.0856 32.3511C87.1026 32.368 87.1146 32.3853 87.118 32.3902L87.1183 32.3906C87.1239 32.3987 87.1293 32.407 87.1341 32.4147C87.1438 32.4301 87.1554 32.4495 87.1683 32.4717C87.1942 32.5164 87.2294 32.579 87.2734 32.6587C87.3765 32.8432 87.5402 33.127 87.7651 33.511L87.7689 33.5174L87.7722 33.524C87.9163 33.8097 88.0933 34.0109 88.2979 34.1416C88.5017 34.2719 88.7472 34.3412 89.0436 34.3412H91.177L90.4137 32.9777C90.3852 32.9326 90.3144 32.8102 90.2099 32.6282C90.0874 32.415 89.9102 32.1044 89.6781 31.6965C89.2139 30.8807 88.53 29.6751 87.6266 28.0796C87.3356 27.569 87.0774 27.1132 86.8521 26.712ZM82.994 25.0314L83.1872 25.45C83.1871 25.4497 83.1877 25.4508 83.1892 25.4536C83.1937 25.4619 83.206 25.4847 83.2304 25.5287C83.26 25.582 83.3025 25.658 83.3582 25.7569C83.4696 25.9545 83.6326 26.2424 83.8475 26.6206C84.2771 27.3769 84.9134 28.4937 85.7564 29.971L85.9585 30.3251H79.9869L82.994 25.0314ZM110.899 23.8485L110.896 23.8473C110.114 23.5114 109.176 23.3393 108.074 23.3393H99.7203C99.5008 23.3393 99.2988 23.4193 99.1071 23.5973L99.1057 23.5986L99.1044 23.5998C99.0632 23.6369 99.0299 23.6742 99.0032 23.7114C98.956 23.7876 98.9288 23.8451 98.9152 23.8859L98.913 23.8925L98.9104 23.8989C98.8823 23.9694 98.8615 24.0838 98.8615 24.2559V34.3412H100.511C100.7 34.3412 100.858 34.2925 100.996 34.1986C101.244 33.9979 101.354 33.7683 101.354 33.4988V31.392H103.682C105.349 31.3813 106.365 31.3758 106.73 31.3756C106.77 31.3672 106.816 31.3591 106.854 31.3591H106.97L107.328 31.8197C107.329 31.8199 107.329 31.8202 107.329 31.8204C107.91 32.5545 108.46 33.2306 108.98 33.849L108.982 33.8519L108.985 33.8548C109.121 34.0276 109.232 34.1346 109.317 34.1915C109.348 34.2119 109.375 34.229 109.398 34.2432C109.417 34.2543 109.438 34.266 109.462 34.2781C109.539 34.3053 109.662 34.3248 109.845 34.3248H112.87C112.645 34.0746 112.412 33.81 112.171 33.5309C112.006 33.3446 111.839 33.1556 111.669 32.9639L111.665 32.959L111.661 32.954C111.416 32.6456 110.957 32.1423 110.276 31.4394L110.006 31.1604L110.378 31.0479C110.604 30.9795 110.819 30.9034 111.024 30.8199C111.078 30.793 111.134 30.7662 111.193 30.7396C111.307 30.6824 111.434 30.6176 111.574 30.5453C111.597 30.5288 111.621 30.5138 111.647 30.5004C111.786 30.4124 111.901 30.3359 111.992 30.2705L112.113 30.173L112.169 30.1314L112.243 30.0573L112.247 30.0538C112.305 30.0006 112.364 29.9389 112.425 29.8683L112.428 29.8649L112.431 29.8615C112.561 29.7208 112.672 29.5894 112.764 29.4674C112.873 29.2952 112.963 29.1405 113.035 29.0028C113.266 28.5145 113.381 27.9957 113.381 27.4439V27.3369C113.381 26.8752 113.303 26.4425 113.149 26.0369L113.149 26.0368L113.149 26.0367C112.86 25.2723 112.375 24.6856 111.69 24.2686L111.686 24.2656L111.681 24.2623C111.534 24.163 111.397 24.0774 111.269 24.0053C111.182 23.9647 111.06 23.913 110.902 23.8496L110.899 23.8485ZM111.377 23.7945C111.514 23.8714 111.66 23.962 111.814 24.0664C112.544 24.5112 113.063 25.1401 113.371 25.9529C113.535 26.3867 113.618 26.8481 113.618 27.3369V27.4439C113.618 28.0316 113.494 28.5863 113.247 29.108C113.17 29.2563 113.074 29.4211 112.959 29.6023C112.86 29.7341 112.742 29.8741 112.604 30.0224C112.539 30.0993 112.473 30.168 112.407 30.2284L112.324 30.3108L112.258 30.3602L112.135 30.459C112.036 30.5304 111.913 30.6128 111.764 30.7062C111.742 30.7172 111.72 30.7309 111.698 30.7474C111.55 30.8243 111.415 30.8929 111.295 30.9533C111.234 30.9808 111.177 31.0082 111.122 31.0357C110.985 31.0918 110.843 31.1446 110.698 31.194C110.615 31.222 110.531 31.2488 110.446 31.2746C110.509 31.3399 110.571 31.4035 110.63 31.4654C111.212 32.0707 111.617 32.5179 111.847 32.8069C112.017 32.9991 112.184 33.1885 112.349 33.3753C112.641 33.7133 112.921 34.0297 113.189 34.3248C113.208 34.3461 113.228 34.3674 113.247 34.3885C113.335 34.4709 113.387 34.5286 113.404 34.5615H109.845C109.642 34.5615 109.482 34.5396 109.367 34.4956C109.334 34.4792 109.304 34.4627 109.276 34.4462C109.249 34.4297 109.219 34.4105 109.186 34.3885C109.07 34.3117 108.941 34.1826 108.799 34.0014C108.277 33.3808 107.725 32.7025 107.143 31.9666L106.854 31.5959C106.838 31.5959 106.805 31.6014 106.756 31.6124C106.415 31.6124 105.391 31.6178 103.683 31.6288H101.59V33.4988C101.59 33.8503 101.439 34.1469 101.137 34.3885C100.956 34.5149 100.747 34.578 100.511 34.578H98.6247V24.2559C98.6247 24.0691 98.6466 23.9208 98.6906 23.811C98.7125 23.7451 98.751 23.6682 98.8059 23.5803C98.8444 23.5254 98.891 23.4732 98.946 23.4238C99.1766 23.2096 99.4347 23.1025 99.7203 23.1025H108.074C109.199 23.1025 110.172 23.2783 110.99 23.6298C111.155 23.6957 111.284 23.7506 111.377 23.7945ZM101.354 25.8397H108.604L108.615 25.8407C108.728 25.8514 108.81 25.8561 108.864 25.8561H108.887L108.908 25.8603C109.118 25.8999 109.295 25.9486 109.423 26.0129L109.437 26.0195L109.447 26.0266L109.454 26.0287L109.465 26.0339C109.539 26.0674 109.609 26.1076 109.676 26.1543L109.678 26.1557L109.68 26.1572C110.099 26.4638 110.329 26.8657 110.329 27.3533C110.329 27.5856 110.285 27.8018 110.191 27.9968C110.079 28.2469 109.903 28.4484 109.669 28.5982C109.339 28.8154 108.885 28.9082 108.337 28.9082H101.354V25.8397ZM109.54 28.3995C109.738 28.2732 109.883 28.1057 109.977 27.897C110.053 27.7378 110.092 27.5565 110.092 27.3533C110.092 26.9524 109.908 26.6174 109.54 26.3483C109.485 26.3099 109.427 26.2769 109.367 26.2494C109.35 26.2439 109.334 26.2357 109.318 26.2247C109.219 26.1753 109.068 26.1314 108.864 26.0929C108.799 26.0929 108.708 26.0874 108.593 26.0764H101.59V28.6714H108.337C108.864 28.6714 109.265 28.5808 109.54 28.3995ZM135.984 26.0764H136.001V24.47C136.001 24.0307 135.839 23.671 135.515 23.3909C135.262 23.1986 134.993 23.1025 134.707 23.1025H124.245C123.855 23.1025 123.49 23.1437 123.149 23.2261C122.748 23.3085 122.389 23.4595 122.07 23.6792C121.977 23.7341 121.87 23.8302 121.749 23.9675C121.529 24.2037 121.373 24.4563 121.279 24.7254C121.098 25.1263 121.008 25.8568 121.008 26.9167V26.9826C121.008 27.422 121.024 27.7542 121.057 27.9794C121.09 28.1881 121.128 28.3638 121.172 28.5066C121.222 28.6604 121.274 28.7895 121.329 28.8938C121.373 28.9982 121.444 29.1108 121.543 29.2316C122.037 29.8851 122.943 30.2119 124.262 30.2119H132.598C132.631 30.2119 132.664 30.2174 132.697 30.2284C132.824 30.2778 132.887 30.3602 132.887 30.4755V31.3405C132.887 31.346 132.884 31.357 132.878 31.3735C132.878 31.3899 132.873 31.4064 132.862 31.4229C132.818 31.5492 132.73 31.6124 132.598 31.6124H120.991V33.2435C120.991 33.5675 121.093 33.8503 121.296 34.092C121.581 34.416 121.916 34.578 122.301 34.578H132.491C133.59 34.578 134.416 34.3803 134.971 33.9849C135.657 33.5071 136.001 32.686 136.001 31.5217V30.3437C136.001 29.7011 135.888 29.1602 135.663 28.7208C135.405 28.2211 134.979 27.8558 134.386 27.6252C134.199 27.5538 133.963 27.4934 133.678 27.4439C133.282 27.3835 132.966 27.3533 132.73 27.3533H132.664C130.852 27.3533 129.622 27.3588 128.974 27.3698C128.743 27.3753 128.584 27.378 128.496 27.378C128.144 27.378 126.722 27.3835 124.229 27.3945H124.187C124.176 27.389 124.163 27.3835 124.146 27.378C124.02 27.3231 123.957 27.2215 123.957 27.0732V26.4472C123.957 26.3428 123.984 26.2632 124.039 26.2083C124.105 26.1533 124.179 26.1259 124.262 26.1259C124.668 26.1259 125.434 26.1204 126.56 26.1094C127.636 26.1094 129.152 26.1039 131.107 26.0929C133.59 26.0929 135.215 26.0874 135.984 26.0764ZM128.978 27.6065C128.748 27.612 128.587 27.6148 128.496 27.6148C128.145 27.6148 126.723 27.6203 124.23 27.6313L124.229 27.6313H124.131L124.082 27.6068L124.081 27.6063L124.081 27.6061C124.079 27.6054 124.076 27.6042 124.071 27.6027L124.061 27.5994L124.052 27.5952C123.951 27.5516 123.864 27.4832 123.803 27.3857C123.743 27.2893 123.72 27.181 123.72 27.0732V26.4472C123.72 26.3022 123.759 26.1537 123.872 26.0408L123.879 26.0332L123.888 26.0263C123.994 25.9376 124.121 25.8891 124.262 25.8891C124.667 25.8891 125.432 25.8836 126.558 25.8726L126.559 25.8726H126.56C127.636 25.8726 129.151 25.8671 131.106 25.8561L131.107 25.8561H131.107C133.376 25.8561 134.928 25.8515 135.764 25.8424V24.47C135.764 24.1 135.632 23.8079 135.365 23.5749C135.151 23.4134 134.933 23.3393 134.707 23.3393H124.245C123.872 23.3393 123.525 23.3788 123.205 23.4563L123.201 23.4572L123.197 23.4581C122.825 23.5344 122.496 23.6735 122.205 23.8741L122.198 23.879L122.19 23.8833C122.128 23.9197 122.041 23.9944 121.927 24.124L121.925 24.1264L121.922 24.1288C121.722 24.3441 121.584 24.5689 121.503 24.803L121.5 24.8132L121.495 24.823C121.337 25.1725 121.244 25.8558 121.244 26.9167V26.9826C121.244 27.4182 121.261 27.7363 121.291 27.944C121.323 28.1444 121.359 28.3075 121.398 28.4357C121.445 28.5801 121.492 28.6951 121.538 28.7835L121.543 28.7926L121.547 28.8019C121.58 28.8791 121.637 28.9723 121.726 29.0816L121.729 29.0851L121.732 29.0887C122.16 29.6545 122.972 29.9751 124.262 29.9751H132.598C132.658 29.9751 132.716 29.9851 132.772 30.0037L132.778 30.0057L132.783 30.0079C132.875 30.0436 132.962 30.0987 133.027 30.1832C133.094 30.2703 133.123 30.3719 133.123 30.4755V31.3405C133.123 31.3738 133.117 31.4015 133.114 31.4103C133.113 31.4136 133.113 31.417 133.112 31.4202C133.106 31.4589 133.093 31.4938 133.077 31.5243C133.042 31.6136 132.986 31.6964 132.901 31.7573C132.809 31.8236 132.703 31.8491 132.598 31.8491H121.228V33.2435C121.228 33.5124 121.31 33.7402 121.475 33.9374C121.722 34.2161 121.994 34.3412 122.301 34.3412H132.491C133.568 34.3412 134.337 34.1462 134.833 33.7921L134.835 33.7913L134.836 33.7905C135.436 33.3729 135.764 32.6414 135.764 31.5217V30.3437C135.764 29.7278 135.656 29.2262 135.452 28.8288C135.224 28.3876 134.847 28.0587 134.301 27.8461C134.134 27.7823 133.915 27.7254 133.639 27.6777C133.25 27.6182 132.948 27.5901 132.73 27.5901H132.664C130.852 27.5901 129.624 27.5956 128.978 27.6065ZM3.96859 28.6714V26.0764H10.7155C11.0889 26.0764 11.3992 26.1204 11.6464 26.2083C12.1956 26.4279 12.4702 26.8179 12.4702 27.378C12.4702 27.6471 12.3933 27.8888 12.2395 28.103C12.1846 28.1634 12.1324 28.2183 12.083 28.2677C11.8029 28.5368 11.3416 28.6714 10.699 28.6714H3.96859ZM80.3938 30.0883H85.5507C85.5051 30.0083 85.46 29.9294 85.4156 29.8515C84.1693 27.6672 83.3996 26.3142 83.1065 25.7923C83.024 25.6455 82.9793 25.5645 82.9722 25.5492L80.3938 30.0883Z" fill="#00EFFF"/>
</g>
<defs>
<filter id="filter0_f" x="6.47598" y="0.200589" width="54.5631" height="54.5632" filterUnits="userSpaceOnUse" color-interpolation-filters="sRGB">
<feFlood flood-opacity="0" result="BackgroundImageFix"/>
<feBlend mode="normal" in="SourceGraphic" in2="BackgroundImageFix" result="shape"/>
<feGaussianBlur stdDeviation="7.39971" result="effect1_foregroundBlur"/>
</filter>
<filter id="filter1_f" x="14.6157" y="8.34027" width="38.2838" height="38.2838" filterUnits="userSpaceOnUse" color-interpolation-filters="sRGB">
<feFlood flood-opacity="0" result="BackgroundImageFix"/>
<feBlend mode="normal" in="SourceGraphic" in2="BackgroundImageFix" result="shape"/>
<feGaussianBlur stdDeviation="3.32987" result="effect1_foregroundBlur"/>
</filter>
<filter id="filter2_f" x="20.4432" y="30.8343" width="11.1931" height="11.1931" filterUnits="userSpaceOnUse" color-interpolation-filters="sRGB">
<feFlood flood-opacity="0" result="BackgroundImageFix"/>
<feBlend mode="normal" in="SourceGraphic" in2="BackgroundImageFix" result="shape"/>
<feGaussianBlur stdDeviation="1.10996" result="effect1_foregroundBlur"/>
</filter>
<filter id="filter3_f" x="36.545" y="13.5855" width="12.4034" height="12.4034" filterUnits="userSpaceOnUse" color-interpolation-filters="sRGB">
<feFlood flood-opacity="0" result="BackgroundImageFix"/>
<feBlend mode="normal" in="SourceGraphic" in2="BackgroundImageFix" result="shape"/>
<feGaussianBlur stdDeviation="1.47994" result="effect1_foregroundBlur"/>
</filter>
<filter id="filter4_f" x="0.262959" y="22.3626" width="136.478" height="12.9554" filterUnits="userSpaceOnUse" color-interpolation-filters="sRGB">
<feFlood flood-opacity="0" result="BackgroundImageFix"/>
<feBlend mode="normal" in="SourceGraphic" in2="BackgroundImageFix" result="shape"/>
<feGaussianBlur stdDeviation="0.369985" result="effect1_foregroundBlur"/>
</filter>
<linearGradient id="paint0_linear" x1="33.7575" y1="15" x2="33.7575" y2="39.9643" gradientUnits="userSpaceOnUse">
<stop offset="0.130208" stop-color="#73FFF2"/>
<stop offset="1" stop-color="#01A9B4" stop-opacity="0"/>
</linearGradient>
<linearGradient id="paint1_linear" x1="33.7575" y1="15" x2="33.7575" y2="39.9643" gradientUnits="userSpaceOnUse">
<stop stop-color="#42FFEE"/>
<stop offset="1" stop-color="#01A9B4" stop-opacity="0"/>
</linearGradient>
<linearGradient id="paint2_linear" x1="34.2488" y1="15.4717" x2="34.2488" y2="40.436" gradientUnits="userSpaceOnUse">
<stop stop-color="#04FFEA"/>
<stop offset="1" stop-color="#01A9B4"/>
</linearGradient>
</defs>
</svg>
